<?xml version="1.0" encoding="utf-8"?>
<!-- Generator: Adobe Illustrator 28.3.0, SVG Export Plug-In . SVG Version: 6.00 Build 0)  -->
<svg version="1.1" id="Capa_1" xmlns="http://www.w3.org/2000/svg" xmlns:xlink="http://www.w3.org/1999/xlink" x="0px" y="0px"
	 viewBox="0 0 64 64" style="enable-background:new 0 0 64 64;" xml:space="preserve">
<style type="text/css">
	.st0{fill:#D1111C;}
</style>
<path class="st0" d="M22.2,27.3c0,0.7,0.5,1.2,1.2,1.2h12.4c0.7,0,1.2-0.5,1.2-1.2l0,0l-0.1-13.4c-0.1-0.6-0.7-1.1-1.3-1.1l-0.2,0
	c-0.7-0.2-1.2-0.7-1.2-1.4v-1.2c0-0.8,0.8-1.5,1.8-1.5h6.3c1,0,1.8,0.7,1.8,1.5v1.2c0,0.6-0.5,1.2-1.2,1.4l-0.3,0.1
	c-0.6,0.1-1.1,0.5-1.2,1.1l0,34.4c0.1,0.6,0.7,1.1,1.3,1.1l12.3,0c0.8,0,1.4-0.7,1.4-1.5l0.1-0.5c0.2-0.6,0.7-1,1.4-1h1.2
	c0.8,0,1.5,0.6,1.5,1.4v4.9c0,0.8-0.7,1.4-1.5,1.4l-22.1,0l-0.5,0c-0.8,0-1.7-0.7-1.7-1.5v-1.9c0-0.6,0.4-1.3,0.8-1.5l0.1-0.1
	c0.7-0.1,1.1-0.8,1.1-1.5l0.1-14.1l0,0c0-0.7-0.5-1.2-1.2-1.2H23.5c-0.7,0-1.2,0.5-1.2,1.2l0,0c0,0-0.1,1.8-0.1,2.5
	c0,3.7,0.3,7.6-0.7,11.2c-0.8,3-2.5,5.9-5.5,7.3c-2.9,1.3-6.2,1-8.8-0.9c-3-2.2-4-6.5-3.9-9.8c0-0.7-0.1-1.7,0.4-2.3
	c0.4-0.4,1-0.6,1.5-0.7c0.6-0.1,1-0.1,1.5,0.1C7.1,41,7.7,41.5,7.6,42c-0.1,2,0,3.7,0.4,5.2c0.5,2.4,2.5,3.8,5.2,3.7
	c1.7-0.1,3.9-2.3,4.1-4.1c1.9-11.2,0.5-32.8,0.5-32.8c-0.1-0.6-0.7-1.1-1.3-1.1h-0.9c-0.8,0-1.5-0.7-1.5-1.5v-1.2
	c0-0.8,0.7-1.5,1.5-1.5h5.2c0.8,0,1.5,0.7,1.5,1.5v1.2L22.2,27.3z"/>
</svg>
